<?xml version="1.0" encoding="UTF-8" standalone="no"?>
<svg
   xmlns:dc="http://purl.org/dc/elements/1.1/"
   xmlns:cc="http://creativecommons.org/ns#"
   xmlns:rdf="http://www.w3.org/1999/02/22-rdf-syntax-ns#"
   xmlns:svg="http://www.w3.org/2000/svg"
   xmlns="http://www.w3.org/2000/svg"
   xmlns:sodipodi="http://sodipodi.sourceforge.net/DTD/sodipodi-0.dtd"
   xmlns:inkscape="http://www.inkscape.org/namespaces/inkscape"
   id="fico"
   width="128"
   height="128"
   viewBox="0 0 128 128"
   fill="none"
   stroke="currentColor"
   stroke-width="2"
   stroke-linecap="round"
   stroke-linejoin="round"
   class="feather feather-settings"
   version="1.1"
   sodipodi:docname="settingLight.svg"
   inkscape:version="1.0.1 (3bc2e813f5, 2020-09-07)">
  <metadata
     id="metadata11">
    <rdf:RDF>
      <cc:Work
         rdf:about="">
        <dc:format>image/svg+xml</dc:format>
        <dc:type
           rdf:resource="http://purl.org/dc/dcmitype/StillImage" />
        <dc:title />
      </cc:Work>
    </rdf:RDF>
  </metadata>
  <defs
     id="defs9" />
  <sodipodi:namedview
     pagecolor="#ffffff"
     bordercolor="#666666"
     borderopacity="1"
     objecttolerance="10"
     gridtolerance="10"
     guidetolerance="10"
     inkscape:pageopacity="0"
     inkscape:pageshadow="2"
     inkscape:window-width="1920"
     inkscape:window-height="1051"
     id="namedview7"
     showgrid="true"
     inkscape:zoom="6.4818123"
     inkscape:cx="84.543571"
     inkscape:cy="42.855568"
     inkscape:window-x="-9"
     inkscape:window-y="-9"
     inkscape:window-maximized="1"
     inkscape:current-layer="fico"
     inkscape:document-rotation="0" />
  <path
     d="m 103.46667,80 a 8.8,8.8 0 0 0 1.76,9.706667 l 0.32,0.32 a 10.666667,10.666667 0 0 1 0,15.093333 10.666667,10.666667 0 0 1 -15.093337,0 l -0.32,-0.32 a 8.8,8.8 0 0 0 -9.706666,-1.76 8.8,8.8 0 0 0 -5.333334,8.05333 V 112 A 10.666667,10.666667 0 0 1 64.426667,122.66667 10.666667,10.666667 0 0 1 53.76,112 v -0.48 a 8.8,8.8 0 0 0 -5.76,-8.05333 8.8,8.8 0 0 0 -9.706667,1.76 l -0.32,0.32 a 10.666667,10.666667 0 0 1 -15.093333,0 10.666667,10.666667 0 0 1 0,-15.093337 l 0.32,-0.32 a 8.8,8.8 0 0 0 1.76,-9.706666 8.8,8.8 0 0 0 -8.053333,-5.333334 H 16 A 10.666667,10.666667 0 0 1 5.3333333,64.426667 10.666667,10.666667 0 0 1 16,53.76 h 0.48 a 8.8,8.8 0 0 0 8.053333,-5.76 8.8,8.8 0 0 0 -1.76,-9.706667 l -0.32,-0.32 a 10.666667,10.666667 0 0 1 0,-15.093333 10.666667,10.666667 0 0 1 15.093334,0 l 0.32,0.32 a 8.8,8.8 0 0 0 9.706666,1.76 H 48 a 8.8,8.8 0 0 0 5.333333,-8.053333 V 16 A 10.666667,10.666667 0 0 1 64,5.3333333 10.666667,10.666667 0 0 1 74.666667,16 v 0.48 A 8.8,8.8 0 0 0 80,24.533333 a 8.8,8.8 0 0 0 9.706667,-1.76 l 0.32,-0.32 a 10.666667,10.666667 0 0 1 15.093333,0 10.666667,10.666667 0 0 1 0,15.093334 l -0.32,0.32 a 8.8,8.8 0 0 0 -1.76,9.706666 V 48 a 8.8,8.8 0 0 0 8.05333,5.333333 H 112 A 10.666667,10.666667 0 0 1 122.66667,64 10.666667,10.666667 0 0 1 112,74.666667 h -0.48 A 8.8,8.8 0 0 0 103.46667,80 Z"
     id="path4"
     style="stroke-width:5;stroke-miterlimit:4;stroke-dasharray:none;stroke:#1f1f1f;stroke-opacity:1" />
  <ellipse
     style="opacity:0.998;fill:none;stroke:#1f1f1f;stroke-width:4.77399;stroke-miterlimit:4;stroke-dasharray:none;stroke-opacity:1"
     id="path1409"
     cx="64"
     cy="64"
     rx="18.613005"
     ry="18.613007" />
</svg>
